<svg width="32" height="32" viewBox="0 0 32 32" fill="none" xmlns="http://www.w3.org/2000/svg">
  <rect width="32" height="32" rx="6" fill="#3B82F6"/>
  <path d="M16 8C11.6 8 8 11.6 8 16C8 19.4 10.2 22.2 13.2 23.4C13.6 23.5 13.8 23.2 13.8 23C13.8 22.8 13.8 22.2 13.8 21.6C11.2 22.2 10.8 20.4 10.8 20.4C10.4 19.4 9.8 19.2 9.8 19.2C9 18.6 9.8 18.6 9.8 18.6C10.6 18.7 11 19.6 11 19.6C11.8 21.2 13.2 20.8 13.8 20.6C13.9 20.2 14.1 19.8 14.4 19.6C12.4 19.4 10.4 18.6 10.4 15.6C10.4 14.4 10.8 13.4 11 12.8C11 12.6 10.6 11.4 11.2 10.2C11.2 10.2 12.2 9.8 13.8 11.2C14.6 11 15.4 10.9 16.2 10.9C17 10.9 17.8 11 18.6 11.2C20.2 9.8 21.2 10.2 21.2 10.2C21.8 11.4 21.4 12.6 21.4 12.8C21.6 13.4 22 14.4 22 15.6C22 18.6 20 19.4 18 19.6C18.3 19.8 18.5 20.2 18.6 20.6C19.2 20.8 20.6 21.2 21.4 19.6C21.4 19.6 21.8 18.7 22.6 18.6C22.6 18.6 23.4 18.6 22.6 19.2C22.6 19.2 22 19.4 21.6 20.4C21.6 20.4 21.2 22.2 18.6 21.6C18.6 22.2 18.6 22.8 18.6 23C18.6 23.2 18.8 23.5 19.2 23.4C22.2 22.2 24.4 19.4 24.4 16C24.4 11.6 20.8 8 16.4 8H16Z" fill="white"/>
  <path d="M24 6L26 8L24 10" stroke="white" stroke-width="1.5" stroke-linecap="round" stroke-linejoin="round"/>
  <path d="M8 6L6 8L8 10" stroke="white" stroke-width="1.5" stroke-linecap="round" stroke-linejoin="round"/>
</svg> 